<?xml version="1.0" encoding="UTF-8"?>
<svg width="162px" height="31px" viewBox="0 0 162 31" version="1.1" xmlns="http://www.w3.org/2000/svg" xmlns:xlink="http://www.w3.org/1999/xlink">
    <!-- Generator: Sketch 53.2 (72643) - https://sketchapp.com -->
    <title>GH_Logo</title>
    <desc>Created with Sketch.</desc>
    <g id="GH_Logo" stroke="none" stroke-width="1" fill="none" fill-rule="evenodd">
        <g id="Logo_Type" transform="translate(1.000000, 1.000000)" fill="#04183D">
            <path d="M113.937705,0 C110.216393,0 108.062295,2.3704918 108.062295,14.4786885 C108.062295,28.2196721 110.963934,29.3704918 113.937705,29.3704918 C115.691803,29.3704918 117.15082,28.9606557 119.813115,26.8065574 L119.813115,11.652459 L113.662295,11.652459 L113.662295,13.8065574 L116.393443,13.8065574 L116.393443,26.4360656 L116.357377,26.4754098 C115.829872,26.9795996 115.119122,27.246131 114.390164,27.2131148 C113.314754,27.2131148 112.672131,26.557377 112.232787,25.0262295 C111.763934,23.3868852 111.498361,19.5442623 111.498361,14.4786885 C111.498361,6.07213115 112.272131,2.15737705 113.937705,2.15737705 C115.363934,2.15737705 115.809836,5.29508197 115.931148,7.96065574 L119.406557,7.15737705 C118.77377,0.554098361 116.252459,0 113.937705,0 Z" id="Path"></path>
            <polygon id="Path" points="29.7803279 28.957377 39.3901639 28.957377 39.3901639 26.8032787 33.2163934 26.8032787 33.2163934 13.6032787 38.1540984 13.6032787 38.1540984 11.4459016 33.2163934 11.4459016 33.2163934 2.56721311 39.3901639 2.56721311 39.3901639 0.409836066 29.7803279 0.409836066"></polygon>
            <path d="M45.1409836,0.42295082 L41.0655738,28.9672131 L43.8688525,28.9672131 L44.4885246,23.2786885 L48.6393443,23.2786885 L49.2590164,28.9606557 L52.8918033,28.9606557 L48.8131148,0.409836066 L45.1409836,0.42295082 Z M48.2622951,21.1213115 L44.8262295,21.1213115 L44.8459016,20.9704918 L46.3409836,7.75737705 L46.704918,7.75737705 L46.704918,7.80655738 L48.2622951,21.1213115 Z" id="Shape" fill-rule="nonzero"></path>
            <polygon id="Path" points="57.1934426 28.957377 60.6295082 28.957377 60.6295082 2.56721311 64.5377049 2.56721311 64.5377049 0.409836066 53.2852459 0.409836066 53.2852459 2.56721311 57.1934426 2.56721311"></polygon>
            <polygon id="Path" points="81.2360656 28.957377 84.6688525 28.957377 84.6688525 0.409836066 81.2360656 0.409836066 81.2360656 11.4459016 76.4360656 11.4459016 76.4360656 0.409836066 73.0032787 0.409836066 73.0032787 28.957377 76.4360656 28.957377 76.4360656 13.6032787 81.2360656 13.6032787"></polygon>
            <polygon id="Path" points="101.219672 28.957377 104.655738 28.957377 104.655738 0.409836066 101.219672 0.409836066"></polygon>
            <path d="M23.1770492,28.957377 L26.557377,28.957377 L23.9344262,13.252459 L24.0196721,13.2065574 C25.7672131,12.2491803 26.5836066,10.2557377 26.5836066,6.94754098 C26.5836066,1.52131148 24.2360656,0.409836066 20.7081967,0.409836066 L15.3737705,0.409836066 L15.3737705,28.957377 L18.8065574,28.957377 L18.8065574,13.9737705 L20.8295082,13.9737705 L21.157377,14.0229508 L23.1770492,28.957377 Z M20.4229508,11.8032787 L18.8065574,11.8032787 L18.8065574,2.56721311 L20.4229508,2.56721311 C22.157377,2.56721311 23.1540984,4.16393443 23.1540984,6.94754098 C23.1540984,10.1311475 22.2098361,11.8032787 20.4229508,11.8032787 Z" id="Shape" fill-rule="nonzero"></path>
            <polygon id="Path" points="88.4 28.957377 98.0065574 28.957377 98.0065574 26.8032787 91.8327869 26.8032787 91.8327869 13.6032787 96.7737705 13.6032787 96.7737705 11.4459016 91.8327869 11.4459016 91.8327869 2.56721311 98.0065574 2.56721311 98.0065574 0.409836066 88.4 0.409836066"></polygon>
            <polygon id="Path" points="131.77377 28.957377 135.206557 28.957377 135.206557 0.409836066 131.77377 0.409836066 131.77377 11.4459016 126.97377 11.4459016 126.97377 0.409836066 123.537705 0.409836066 123.537705 28.957377 126.97377 28.957377 126.97377 13.6032787 131.77377 13.6032787"></polygon>
            <polygon id="Path" points="140.931148 28.957377 144.367213 28.957377 144.367213 2.56721311 148.27541 2.56721311 148.27541 0.409836066 137.022951 0.409836066 137.022951 2.56721311 140.931148 2.56721311"></polygon>
            <path d="M149.144262,19.3016393 C148.980328,23.7409836 149.580328,26.6196721 150.980328,28.104918 C151.796721,28.9672131 152.872131,29.3704918 154.363934,29.3704918 C159.177049,29.3704918 159.82623,24.9836066 159.82623,20.695082 C159.82623,16.6360656 159.318033,15.3377049 156.954098,13.3901639 L155.144262,11.9081967 C153.206557,10.3606557 153.036066,9.38360656 153.036066,6.99016393 C153.036066,4.48196721 153.206557,2.16065574 154.445902,2.16065574 C154.757329,2.15675761 155.056021,2.28408861 155.268852,2.51147541 C155.967213,3.23606557 156.186885,6.25901639 156.163934,8.65901639 L159.6,7.86885246 C159.386885,1.21639344 157.704918,0 154.445902,0 C150.904918,0 149.393443,2.08852459 149.393443,6.98688525 C149.393443,11.0721311 150.088525,12.3180328 152.311475,14.2 L154.098361,15.7377049 C155.737705,17.1540984 156.203279,18.0327869 156.203279,21.0295082 C156.203279,25.4229508 155.67541,27.2163934 154.380328,27.2163934 C154.057963,27.2127791 153.753462,27.067722 153.547541,26.8196721 C152.754098,25.947541 152.413115,22.5245902 152.714754,18.4819672 L149.144262,19.3016393 Z" id="Path"></path>
            <path d="M5.87540984,0 C2.15409836,0 0,2.3704918 0,14.4786885 C0,28.2196721 2.90163934,29.3704918 5.87540984,29.3704918 C7.6295082,29.3704918 9.08852459,28.9606557 11.7508197,26.8065574 L11.7508197,11.652459 L5.6,11.652459 L5.6,13.8065574 L8.3147541,13.8065574 L8.3147541,26.4360656 L8.27540984,26.4754098 C7.75353404,26.9758809 7.05034887,27.2422389 6.32786885,27.2131148 C5.25245902,27.2131148 4.60983607,26.557377 4.1704918,25.0262295 C3.70163934,23.3868852 3.43278689,19.5442623 3.43278689,14.4786885 C3.43278689,6.07213115 4.20983607,2.15737705 5.87540984,2.15737705 C7.30163934,2.15737705 7.74754098,5.29508197 7.86885246,7.96065574 L11.3442623,7.15737705 C10.7114754,0.554098361 8.19672131,0 5.87540984,0 Z" id="Path"></path>
        </g>
    </g>
</svg>